<svg width="300" height="68" viewBox="0 0 300 68" fill="none" xmlns="http://www.w3.org/2000/svg">
<path fill-rule="evenodd" clip-rule="evenodd" d="M33.766 0.0756836C27.2569 0.0756836 21.1739 1.91997 16.0137 5.10765L18.4314 7.44444C22.9389 4.8239 28.1786 3.31975 33.766 3.31975C50.573 3.31975 64.2463 16.9171 64.2463 33.6309C64.2463 40.7839 61.7405 47.3648 57.5577 52.5548C58.3692 53.2493 59.1932 53.9567 60.0274 54.6746C64.7036 48.9145 67.5085 41.5929 67.5085 33.6309C67.5085 15.1287 52.3716 0.0756836 33.766 0.0756836Z" fill="#FF4411"/>
<path fill-rule="evenodd" clip-rule="evenodd" d="M12.2563 12.1761L9.95047 9.8833C9.57192 10.2588 9.20255 10.6433 8.8418 11.0362L11.1503 13.3317C11.5091 12.937 11.8775 12.5515 12.2563 12.1761Z" fill="#FF4411"/>
<path fill-rule="evenodd" clip-rule="evenodd" d="M9.2134 15.691L6.88394 13.3745C6.58282 13.7688 6.2907 14.1699 6.00684 14.5776L8.35795 16.9069C8.63338 16.4945 8.91853 16.089 9.2134 15.691Z" fill="#FF4411"/>
<path fill-rule="evenodd" clip-rule="evenodd" d="M15.6915 9.23956L13.3679 6.91992C12.9736 7.21827 12.5855 7.52465 12.2051 7.83978L14.5215 10.1434C14.9039 9.83297 15.294 9.5317 15.6915 9.23956Z" fill="#FF4411"/>
<path fill-rule="evenodd" clip-rule="evenodd" d="M33.7659 63.9421C16.9589 63.9421 3.2856 50.3444 3.2856 33.6308C3.2856 28.6348 4.50823 23.9174 6.67016 19.7583L4.28767 17.3198C1.57342 22.1516 0.0234375 27.7142 0.0234375 33.6308C0.0234375 52.1334 15.1603 67.1862 33.7659 67.1862C41.2308 67.1862 48.1364 64.7613 53.731 60.6643C53.0071 59.832 52.2939 59.0102 51.5936 58.2009C46.5771 61.8108 40.4175 63.9421 33.7659 63.9421Z" fill="#FF4411"/>
<path fill-rule="evenodd" clip-rule="evenodd" d="M15.8691 18.0244L21.4017 23.5262L21.9689 22.9624L22.5357 22.3985L16.9666 16.8604C16.5879 17.2359 16.2222 17.6244 15.8691 18.0244Z" fill="#FF4411"/>
<path fill-rule="evenodd" clip-rule="evenodd" d="M57.5707 33.6313C57.5707 20.5574 46.9131 9.95898 33.7665 9.95898C30.0696 9.95898 26.5697 10.7969 23.4482 12.2921L34.8399 23.3007C34.8399 23.3007 34.9251 24.1748 34.2164 25.5563C34.2164 25.5563 31.8319 30.8253 36.0022 34.4935C36.0022 34.4935 42.8873 40.1002 52.4958 48.243C55.6746 44.2193 57.5707 39.1451 57.5707 33.6313Z" fill="#FF4411"/>
<path fill-rule="evenodd" clip-rule="evenodd" d="M13.9948 20.4453C13.7172 20.8561 13.4529 21.2765 13.2012 21.7048L18.2553 26.7123L19.2758 25.6972L13.9948 20.4453Z" fill="#FF4411"/>
<path fill-rule="evenodd" clip-rule="evenodd" d="M19.2637 14.8597L24.7184 20.2842L25.739 19.2691L20.4599 13.9995C20.0516 14.2738 19.6534 14.5615 19.2637 14.8597Z" fill="#FF4411"/>
<path fill-rule="evenodd" clip-rule="evenodd" d="M9.96094 33.6309C9.96094 46.7046 20.6187 57.303 33.7655 57.303C38.7679 57.303 43.409 55.7672 47.2408 53.1456C39.1331 43.6818 33.5633 36.9176 33.5633 36.9176C29.8747 32.7701 24.5763 35.1414 24.5763 35.1414C23.187 35.8463 22.3083 35.7618 22.3083 35.7618L11.6511 24.856C10.5613 27.5696 9.96094 30.5304 9.96094 33.6309Z" fill="#FF4411"/>
<path fill-rule="evenodd" clip-rule="evenodd" d="M126.689 19.7042L117.643 48.958H113.383L106.559 27.9522C106.478 27.7219 106.4 27.4714 106.326 27.2005C106.252 26.9296 106.182 26.6384 106.114 26.3269C106.047 26.6384 105.976 26.9296 105.902 27.2005C105.828 27.4714 105.751 27.7219 105.67 27.9522L98.7852 48.958H94.5249L85.4795 19.7042H89.4369C89.8407 19.7042 90.1806 19.8024 90.4565 19.9988C90.7325 20.1952 90.9175 20.4626 91.0118 20.8012L96.4632 39.5521C96.5709 39.9584 96.6719 40.3986 96.7661 40.8726C96.8603 41.3466 96.9546 41.8409 97.0488 42.3556C97.143 41.8409 97.2473 41.3432 97.3617 40.8624C97.4761 40.3816 97.6007 39.9449 97.7353 39.5521L103.974 20.8012C104.068 20.5304 104.257 20.2798 104.54 20.0496C104.822 19.8193 105.159 19.7042 105.549 19.7042H106.922C107.339 19.7042 107.676 19.8092 107.932 20.0191C108.187 20.229 108.383 20.4897 108.517 20.8012L114.736 39.5521C114.87 39.9449 114.995 40.3681 115.109 40.8218C115.224 41.2755 115.328 41.7529 115.422 42.254C115.517 41.7529 115.607 41.2755 115.695 40.8218C115.782 40.3681 115.88 39.9449 115.988 39.5521L121.419 20.8012C121.5 20.5033 121.685 20.2459 121.974 20.0293C122.264 19.8126 122.603 19.7042 122.994 19.7042H126.689ZM134.139 30.6947C134.987 29.855 135.916 29.1812 136.925 28.6733C137.935 28.1655 139.113 27.9115 140.459 27.9115C141.59 27.9115 142.582 28.1011 143.437 28.4803C144.292 28.8596 145.012 29.3945 145.597 30.0852C146.183 30.776 146.624 31.6055 146.92 32.5738C147.216 33.5422 147.364 34.6087 147.364 35.7735V48.958H143.043V35.7735C143.043 34.3785 142.724 33.295 142.084 32.5231C141.445 31.7511 140.472 31.3651 139.167 31.3651C138.197 31.3651 137.299 31.5886 136.471 32.0355C135.643 32.4824 134.866 33.0919 134.139 33.8639V48.958H129.798V18.8916H134.139V30.6947ZM163.456 39.8975C161.908 39.9516 160.602 40.0769 159.539 40.2733C158.476 40.4697 157.614 40.7202 156.955 41.0249C156.295 41.3297 155.821 41.692 155.531 42.1118C155.242 42.5317 155.097 42.9921 155.097 43.4932C155.097 43.9808 155.174 44.3973 155.329 44.7426C155.484 45.088 155.699 45.3724 155.975 45.5959C156.251 45.8193 156.574 45.9818 156.945 46.0834C157.315 46.185 157.722 46.2358 158.166 46.2358C159.297 46.2358 160.269 46.0225 161.084 45.5959C161.898 45.1692 162.689 44.5496 163.456 43.737V39.8975ZM151.947 31.1213C154.276 28.9408 157.049 27.8506 160.266 27.8506C161.45 27.8506 162.504 28.0436 163.426 28.4296C164.348 28.8155 165.122 29.3607 165.748 30.0649C166.374 30.7692 166.851 31.6055 167.181 32.5738C167.511 33.5422 167.676 34.6155 167.676 35.7938V48.958H165.738C165.32 48.958 165.004 48.8937 164.789 48.765C164.573 48.6364 164.392 48.3756 164.243 47.9829L163.819 46.2967C163.295 46.7707 162.776 47.194 162.265 47.5664C161.753 47.9389 161.225 48.2537 160.68 48.5111C160.135 48.7684 159.549 48.9614 158.923 49.0901C158.297 49.2187 157.607 49.2831 156.854 49.2831C156.019 49.2831 155.242 49.1679 154.522 48.9377C153.802 48.7075 153.179 48.3587 152.654 47.8915C152.129 47.4242 151.715 46.8452 151.412 46.1545C151.109 45.4638 150.958 44.6512 150.958 43.7167C150.958 42.9176 151.17 42.1389 151.594 41.3805C152.018 40.622 152.718 39.9415 153.694 39.3388C154.67 38.7361 155.955 38.2384 157.55 37.8456C159.145 37.4529 161.114 37.2294 163.456 37.1752V35.7938C163.456 34.304 163.14 33.1935 162.507 32.4621C161.874 31.7308 160.946 31.3651 159.721 31.3651C158.886 31.3651 158.186 31.4701 157.621 31.68C157.056 31.8899 156.564 32.1168 156.147 32.3605C155.73 32.6043 155.36 32.8312 155.037 33.0411C154.713 33.251 154.37 33.356 154.007 33.356C153.711 33.356 153.458 33.2781 153.25 33.1224C153.041 32.9666 152.869 32.7736 152.735 32.5434L151.947 31.1213ZM178.983 49.2831C177.273 49.2831 175.957 48.7989 175.035 47.8305C174.113 46.8622 173.652 45.4977 173.652 43.737V31.6698H171.391C171.149 31.6698 170.94 31.592 170.765 31.4362C170.59 31.2805 170.503 31.0468 170.503 30.7353V28.9679L173.834 28.4803L174.783 22.4874C174.85 22.2571 174.965 22.0709 175.126 21.9287C175.288 21.7865 175.503 21.7154 175.772 21.7154H177.993V28.521H183.707V31.6698H177.993V43.4323C177.993 44.1772 178.175 44.746 178.539 45.1388C178.902 45.5315 179.387 45.7279 179.992 45.7279C180.329 45.7279 180.618 45.6839 180.86 45.5959C181.103 45.5078 181.311 45.413 181.486 45.3114C181.661 45.2099 181.813 45.1151 181.941 45.027C182.069 44.939 182.193 44.895 182.314 44.895C182.556 44.895 182.752 45.0304 182.9 45.3013L184.192 47.4344C183.519 48.0303 182.725 48.4874 181.809 48.8056C180.894 49.1239 179.952 49.2831 178.983 49.2831ZM200.244 31.9949C200.136 32.1845 200.015 32.3199 199.88 32.4012C199.746 32.4824 199.577 32.5231 199.375 32.5231C199.147 32.5231 198.897 32.452 198.628 32.3098C198.359 32.1675 198.043 32.0084 197.679 31.8323C197.316 31.6563 196.889 31.4971 196.397 31.3549C195.906 31.2127 195.33 31.1416 194.671 31.1416C194.132 31.1416 193.645 31.206 193.207 31.3346C192.77 31.4633 192.399 31.6461 192.097 31.8831C191.794 32.1201 191.562 32.3978 191.4 32.7161C191.238 33.0343 191.158 33.3763 191.158 33.742C191.158 34.2295 191.306 34.6358 191.602 34.9609C191.898 35.2859 192.288 35.5669 192.773 35.804C193.258 36.041 193.809 36.2543 194.429 36.4439C195.048 36.6335 195.68 36.8366 196.327 37.0533C196.973 37.27 197.605 37.5206 198.224 37.805C198.844 38.0894 199.396 38.4382 199.88 38.8512C200.365 39.2643 200.755 39.7654 201.051 40.3545C201.347 40.9437 201.495 41.6581 201.495 42.4978C201.495 43.4729 201.32 44.3736 200.97 45.1997C200.62 46.0259 200.109 46.7437 199.436 47.3531C198.763 47.9626 197.925 48.4366 196.922 48.7752C195.919 49.1138 194.772 49.2831 193.48 49.2831C192.766 49.2831 192.076 49.2187 191.41 49.0901C190.744 48.9614 190.111 48.7853 189.512 48.5619C188.913 48.3384 188.355 48.0709 187.836 47.7594C187.318 47.4479 186.857 47.1093 186.453 46.7437L187.463 45.0778C187.584 44.8747 187.735 44.7155 187.917 44.6004C188.099 44.4853 188.324 44.4277 188.594 44.4277C188.876 44.4277 189.155 44.5191 189.431 44.702C189.707 44.8848 190.03 45.0846 190.401 45.3013C190.771 45.518 191.218 45.7177 191.743 45.9006C192.268 46.0834 192.921 46.1748 193.702 46.1748C194.348 46.1748 194.906 46.097 195.378 45.9412C195.849 45.7855 196.239 45.5722 196.549 45.3013C196.858 45.0304 197.087 44.7223 197.235 44.3769C197.383 44.0316 197.457 43.6625 197.457 43.2698C197.457 42.7416 197.309 42.3082 197.013 41.9696C196.717 41.631 196.323 41.3398 195.832 41.0961C195.341 40.8523 194.782 40.6356 194.156 40.446C193.53 40.2564 192.894 40.0532 192.248 39.8365C191.602 39.6198 190.966 39.3693 190.34 39.0849C189.714 38.8004 189.155 38.4382 188.664 37.998C188.173 37.5578 187.779 37.0229 187.483 36.3931C187.187 35.7633 187.039 34.9947 187.039 34.0873C187.039 33.2612 187.204 32.4757 187.533 31.7308C187.863 30.9859 188.348 30.329 188.987 29.7602C189.627 29.1914 190.414 28.7411 191.35 28.4092C192.285 28.0774 193.365 27.9115 194.59 27.9115C195.977 27.9115 197.235 28.135 198.366 28.5819C199.496 29.0289 200.445 29.6383 201.213 30.4103L200.244 31.9949ZM230.792 34.5546V46.1342C227.898 48.2334 224.533 49.2831 220.697 49.2831C218.341 49.2831 216.211 48.914 214.306 48.1759C212.402 47.4378 210.776 46.4085 209.43 45.088C208.084 43.7675 207.048 42.1931 206.321 40.3647C205.594 38.5363 205.231 36.5252 205.231 34.3311C205.231 32.1235 205.581 30.1022 206.281 28.267C206.981 26.4319 207.983 24.8541 209.289 23.5336C210.595 22.2131 212.17 21.1906 214.014 20.466C215.858 19.7414 217.931 19.3792 220.232 19.3792C221.403 19.3792 222.49 19.4706 223.493 19.6534C224.496 19.8363 225.428 20.0902 226.29 20.4152C227.151 20.7403 227.945 21.133 228.672 21.5935C229.399 22.054 230.065 22.5686 230.671 23.1375L229.318 25.3112C229.103 25.6498 228.827 25.8597 228.49 25.941C228.154 26.0222 227.79 25.941 227.4 25.6972C227.01 25.4669 226.596 25.2232 226.158 24.9658C225.721 24.7085 225.219 24.4681 224.654 24.2446C224.089 24.0212 223.436 23.8383 222.696 23.6961C221.955 23.5539 221.08 23.4828 220.071 23.4828C218.536 23.4828 217.153 23.7368 215.922 24.2446C214.69 24.7525 213.637 25.4771 212.762 26.4184C211.887 27.3596 211.214 28.5007 210.743 29.8415C210.272 31.1823 210.036 32.6788 210.036 34.3311C210.036 36.0782 210.285 37.6391 210.783 39.0137C211.281 40.3884 211.988 41.5531 212.903 42.508C213.818 43.4628 214.926 44.1907 216.224 44.6918C217.523 45.1929 218.974 45.4435 220.576 45.4435C221.774 45.4435 222.84 45.3148 223.776 45.0575C224.711 44.8002 225.63 44.4413 226.532 43.9808V38.1707H222.474C222.164 38.1707 221.922 38.086 221.747 37.9167C221.572 37.7474 221.484 37.5274 221.484 37.2565V34.5546H230.792ZM244.481 27.9115C246.002 27.9115 247.379 28.1621 248.61 28.6632C249.842 29.1643 250.892 29.8753 251.76 30.7963C252.628 31.7172 253.298 32.8346 253.769 34.1483C254.24 35.462 254.476 36.9382 254.476 38.577C254.476 40.2157 254.24 41.692 253.769 43.0057C253.298 44.3194 252.628 45.4401 251.76 46.3678C250.892 47.2956 249.842 48.01 248.61 48.5111C247.379 49.0122 246.002 49.2627 244.481 49.2627C242.947 49.2627 241.564 49.0122 240.332 48.5111C239.101 48.01 238.047 47.2956 237.172 46.3678C236.297 45.4401 235.624 44.3194 235.153 43.0057C234.682 41.692 234.447 40.2157 234.447 38.577C234.447 36.9382 234.682 35.462 235.153 34.1483C235.624 32.8346 236.297 31.7172 237.172 30.7963C238.047 29.8753 239.101 29.1643 240.332 28.6632C241.564 28.1621 242.947 27.9115 244.481 27.9115ZM244.481 45.8498C246.339 45.8498 247.722 45.2234 248.631 43.9706C249.539 42.7179 249.993 40.9268 249.993 38.5973C249.993 36.2678 249.539 34.4699 248.631 33.2036C247.722 31.9373 246.339 31.3042 244.481 31.3042C242.597 31.3042 241.197 31.9373 240.282 33.2036C239.366 34.4699 238.909 36.2678 238.909 38.5973C238.909 40.9268 239.366 42.7179 240.282 43.9706C241.197 45.2234 242.597 45.8498 244.481 45.8498ZM267.539 27.9115C269.06 27.9115 270.437 28.1621 271.668 28.6632C272.9 29.1643 273.95 29.8753 274.818 30.7963C275.686 31.7172 276.356 32.8346 276.827 34.1483C277.298 35.462 277.534 36.9382 277.534 38.577C277.534 40.2157 277.298 41.692 276.827 43.0057C276.356 44.3194 275.686 45.4401 274.818 46.3678C273.95 47.2956 272.9 48.01 271.668 48.5111C270.437 49.0122 269.06 49.2627 267.539 49.2627C266.005 49.2627 264.622 49.0122 263.39 48.5111C262.158 48.01 261.105 47.2956 260.23 46.3678C259.355 45.4401 258.682 44.3194 258.211 43.0057C257.74 41.692 257.504 40.2157 257.504 38.577C257.504 36.9382 257.74 35.462 258.211 34.1483C258.682 32.8346 259.355 31.7172 260.23 30.7963C261.105 29.8753 262.158 29.1643 263.39 28.6632C264.622 28.1621 266.005 27.9115 267.539 27.9115ZM267.539 45.8498C269.397 45.8498 270.78 45.2234 271.688 43.9706C272.597 42.7179 273.051 40.9268 273.051 38.5973C273.051 36.2678 272.597 34.4699 271.688 33.2036C270.78 31.9373 269.397 31.3042 267.539 31.3042C265.655 31.3042 264.255 31.9373 263.34 33.2036C262.424 34.4699 261.967 36.2678 261.967 38.5973C261.967 40.9268 262.424 42.7179 263.34 43.9706C264.255 45.2234 265.655 45.8498 267.539 45.8498ZM294.837 33.3357C294.231 32.5501 293.565 32.0016 292.838 31.6901C292.111 31.3786 291.324 31.2229 290.476 31.2229C288.78 31.2229 287.454 31.8493 286.498 33.102C285.543 34.3548 285.065 36.2069 285.065 38.6582C285.065 39.9313 285.172 41.0182 285.388 41.9188C285.603 42.8195 285.913 43.5542 286.317 44.123C286.72 44.6918 287.212 45.1049 287.791 45.3622C288.369 45.6196 289.022 45.7482 289.749 45.7482C290.853 45.7482 291.805 45.5078 292.606 45.027C293.407 44.5462 294.151 43.8657 294.837 42.9854V33.3357ZM299.178 18.8916V48.958H296.553C295.974 48.958 295.604 48.6804 295.443 48.1251L295.059 45.8701C294.198 46.8859 293.218 47.7052 292.121 48.3282C291.024 48.9512 289.749 49.2627 288.295 49.2627C287.138 49.2627 286.088 49.0291 285.146 48.5619C284.203 48.0946 283.396 47.4141 282.723 46.5202C282.05 45.6263 281.528 44.5192 281.158 43.1987C280.788 41.8782 280.603 40.3647 280.603 38.6582C280.603 37.1143 280.808 35.6855 281.218 34.3717C281.629 33.058 282.218 31.917 282.985 30.9486C283.752 29.9803 284.685 29.2219 285.782 28.6733C286.879 28.1248 288.107 27.8506 289.466 27.8506C290.678 27.8506 291.708 28.0436 292.556 28.4296C293.404 28.8155 294.164 29.3539 294.837 30.0446V18.8916H299.178Z" fill="#2F313A"/>
</svg>
